<?xml version="1.0" encoding="utf-8"?>
<!-- Generator: Adobe Illustrator 23.0.1, SVG Export Plug-In . SVG Version: 6.00 Build 0)  -->
<svg version="1.1" id="Calque_1" xmlns="http://www.w3.org/2000/svg" xmlns:xlink="http://www.w3.org/1999/xlink" x="0px" y="0px"
	 viewBox="0 0 149.9 129.6" style="enable-background:new 0 0 149.9 129.6;" xml:space="preserve">
<style type="text/css">
	.st0{fill-rule:evenodd;clip-rule:evenodd;}
	.st1{fill:#FFFFFF;}
	.st2{fill-rule:evenodd;clip-rule:evenodd;fill:#008C5C;}
	.st3{fill-rule:evenodd;clip-rule:evenodd;fill:#FFFFFF;}
	.st4{fill-rule:evenodd;clip-rule:evenodd;fill:#EC2738;}
</style>
<g>
	<polygon class="st0" points="0,86.6 0,0 149.9,0 149.9,86.6 74.9,129.6 	"/>
	<polygon class="st1" points="3.9,3.8 3.8,3.8 3.8,84.4 74.9,125.3 74.9,125.3 75,125.3 146,84.5 146,84.4 146,3.9 	"/>
	<polygon class="st2" points="142.2,49.3 142.2,7.6 7.6,7.6 7.6,51.3 142.2,51.3 	"/>
	<g>
		<g>
			<polygon class="st3" points="40.5,46.1 40.5,19.8 54.5,19.8 54.5,12.8 16.7,12.8 16.7,19.8 30.6,19.8 30.6,46.1 40.5,46.1 
				40.5,46.1 			"/>
		</g>
	</g>
	<g>
		<g>
			<path class="st3" d="M131.5,45.5c-7.6,1.5-17.4,1.9-24.4-0.9c-6-2.3-9.7-7.7-10.5-13c-0.8-6.5,2-12.2,8.1-16
				c7.1-4.3,18.3-4.2,26-1.2l0,0v7.3c-5.8-2.3-14.6-4.3-20.2-0.6c-4,2.6-5.3,6.8-4.2,11c0.8,3.3,4.1,6.3,7.8,7.4
				c2.6,0.7,5.8,0.9,8.7,0.6l0,0v-5.4l-3.8,0v-6.5h12.6L131.5,45.5z"/>
		</g>
	</g>
	<g>
		<g>
			<path class="st3" d="M64,39.6l-3.3,6.5H50.6L67,12.8h11.3L95,46.1H84.9l-3.5-6.5H64L64,39.6L64,39.6z M72.7,21l-6,11.7h11.6
				L72.7,21z"/>
		</g>
	</g>
	<polygon class="st4" points="7.5,82.3 74.9,121.1 142.4,82.3 142.4,55.1 7.4,55.1 	"/>
	<path class="st1" d="M85.9,107.8l0-47.5c0-0.1-0.1-0.2-0.2-0.2h-4.8c-0.1,0-0.2,0.1-0.2,0.2v44.6l-5.6,3.1l-5.6-3.1V60.3
		c0-0.1-0.1-0.2-0.2-0.2h-4.8c-0.1,0-0.1,0-0.2,0.1c0,0-0.1,0.1-0.1,0.2l0,47.5c0,0.1,0,0.2,0.1,0.2l10.7,6.2c0.1,0,0.2,0,0.2,0
		l10.7-6.2C85.8,108,85.9,107.9,85.9,107.8z"/>
	<path class="st1" d="M56.1,103.4c0.1,0,0.2,0,0.2,0c0.1,0,0.1-0.1,0.1-0.2v-5.1c0-0.1,0-0.2-0.1-0.2l-10.3-5.6V79.8l9.2,2.4
		c0.1,0,0.2-0.1,0.2-0.3l0-5.1c0-0.1-0.1-0.2-0.2-0.2l-9.2-2v-9.9h10.2c0.1,0,0.2-0.1,0.2-0.2v-4.2c0-0.1-0.1-0.2-0.2-0.2H41.1
		c-0.1,0-0.2,0.1-0.2,0.2v34.3c0,0.1,0,0.2,0.1,0.2L56.1,103.4z"/>
	<path class="st1" d="M110,93.9v-4.6c0-0.1,0-0.2-0.1-0.2c-0.1,0-0.2,0-0.2,0l-10.1,5.5V80.9l9.4-2.4c0.1,0,0.2-0.1,0.2-0.2v-4.5
		c0-0.1,0-0.1-0.1-0.2c0,0-0.1-0.1-0.2-0.1l-9.3,2V64.7h10.2c0.1,0,0.2-0.1,0.2-0.2v-4.2c0-0.1-0.1-0.2-0.2-0.2H94.7
		c-0.1,0-0.2,0.1-0.2,0.2v42.3c0,0.1,0,0.2,0.1,0.2c0.1,0,0.2,0,0.2,0l15.1-8.7C110,94.1,110,94,110,93.9z"/>
	<path class="st1" d="M28.2,87.4l4.2,2.4c0.1,0,0.2,0,0.2,0c0.1,0,0.1-0.1,0.1-0.2l0-29.3c0-0.1-0.1-0.2-0.2-0.2h-4.2
		c-0.1,0-0.2,0.1-0.2,0.2v10.3l-10-2.2v-8.1c0-0.1-0.1-0.2-0.2-0.2h-4.1c-0.1,0-0.1,0-0.2,0.1c0,0-0.1,0.1-0.1,0.2l0,18.5
		c0,0.1,0,0.2,0.1,0.2l4.1,2.3c0.1,0,0.2,0,0.2,0c0.1,0,0.1-0.1,0.1-0.2v-8.5l10,2.6v12C28.1,87.3,28.1,87.3,28.2,87.4z"/>
	<path class="st1" d="M117.9,89.4c0.1,0,0.2,0,0.2,0l4.3-2.4c0,0,0,0,0,0V75l2.5-0.7l7.4,6.6c0.1,0.1,0.2,0.1,0.3,0.1l3.8-2.2
		c0.1,0,0.1-0.1,0.1-0.2c0-0.1,0-0.1,0-0.2l-6.5-5.5l4.6-1.2c1.5-0.4,1.8-1.1,1.7-2.6l0-7.5c-0.2-1.1-1-1.7-2.1-1.7
		c-0.1,0-0.1,0-0.2,0L118,60c-0.1,0-0.2,0.2-0.2,0.3l0,28.9C117.8,89.3,117.8,89.4,117.9,89.4z M122.5,64.7l8.7,0
		c0.4,0,0.7,0.3,0.7,0.7v2.2c0,0.5-0.1,0.8-0.8,0.9l-8.7,1.9V64.7z"/>
</g>
</svg>
