<?xml version="1.0" encoding="utf-8"?>
<!-- Generator: Adobe Illustrator 23.0.1, SVG Export Plug-In . SVG Version: 6.00 Build 0)  -->
<svg version="1.1" xmlns="http://www.w3.org/2000/svg" xmlns:xlink="http://www.w3.org/1999/xlink" x="0px" y="0px"
	 viewBox="0 0 361.5 57.2" style="enable-background:new 0 0 361.5 57.2;" xml:space="preserve">
<style type="text/css">
	.st0{fill:#FFFFFF;}
	.st1{fill-rule:evenodd;clip-rule:evenodd;}
	.st2{fill-rule:evenodd;clip-rule:evenodd;fill:#FFFFFF;}
</style>
<g id="Calque_2">
</g>
<g id="Calque_1">
	<g>
		<g>
			<path class="st0" d="M192.9,35.8c-7,1.6-16.1,2-22.6-1c-5.6-2.4-9-8.3-9.7-13.9c-0.7-7,1.9-13.1,7.5-17.2
				c6.5-4.7,16.9-4.5,24-1.3v7.1c-5.4-2.5-13.5-3.9-18.7,0c-3.7,2.9-4.9,7.4-3.9,11.9c0.7,3.6,3.8,6.8,7.2,7.9
				c2.4,0.8,5.4,1,8.1,0.7v-5.8l-3.6,0v-7h11.7L192.9,35.8L192.9,35.8z"/>
			<polygon class="st0" points="106.7,36.1 106.7,6.9 119.6,6.9 119.6,0.1 84.6,0.1 84.6,6.9 97.5,6.9 97.5,36.1 			"/>
			<path class="st0" d="M132.7,22.8l5.2-13.4l5.6,13.4H132.7z M143,0.4h-10.5l-14.7,35.9h9.7l2.8-7h16.1l2.9,7h9.6L143,0.4z"/>
			<polygon class="st0" points="228.1,15.8 207.7,15.8 207.7,0.4 202.3,0.4 202.3,36.2 207.7,36.2 207.7,20.6 228.1,20.6 
				228.1,36.2 233.5,36.2 233.5,0.4 228.1,0.4 			"/>
			<path class="st0" d="M293.9,26.1c-0.4,0.9-2.8,6.1-9.1,6.1c-6.4,0-7.3-4.9-7.3-7.9V5.2H272l0,18.4C272,36,281.4,37,284.2,37
				c4.7,0,7.9-2,9.7-3.7l0,3h5.5v-31h-5.5L293.9,26.1z"/>
			<path class="st0" d="M361.5,8.5c-0.1-0.2-3.5-3.9-7.9-3.9c-3.8,0-7.6,3.7-9.7,6.3l0-5.7h-5.5v31.2h5.5l0-18.6
				c1.4-2.4,5.3-7.8,8.6-7.8c2.7,0,5.6,3.1,5.6,3.1L361.5,8.5z"/>
			<path class="st0" d="M252.8,4.6c-8.6,0-15,6.4-15,16.1c0,6.7,4.5,16.3,16.6,16.3c7.7,0,12.3-4.2,12.5-4.4l0.3-0.3l0-6.4l-1.7,1.6
				c0,0-4.6,4.4-10.8,4.4c-6.7,0-11.4-3.9-11.4-11.1c0,0,0,0,0-0.1h24.4v-1C267.9,12,263.2,4.6,252.8,4.6z M244.3,15.8
				c1.4-4.4,4.5-6.1,8.5-6.1c6.5,0,8.4,3.9,8.9,6.1H244.3z"/>
			<path class="st0" d="M318.9,4.6c-8.6,0-15,6.4-15,16.1c0,6.7,4.5,16.3,16.6,16.3c7.7,0,12.3-4.2,12.5-4.4l0.3-0.3l0-6.4l-1.7,1.6
				c0,0-4.6,4.4-10.8,4.4c-6.7,0-11.4-3.9-11.4-11.1c0,0,0,0,0-0.1H334v-1C334,12,329.3,4.6,318.9,4.6z M310.4,15.8
				c1.4-4.4,4.5-6.1,8.5-6.1c6.5,0,8.4,3.9,8.9,6.1H310.4z"/>
			<path class="st0" d="M99.3,53.1l-1-0.6c-0.7-0.4-1.1-0.8-1.4-1.2c-0.3-0.4-0.4-0.8-0.4-1.3c0-0.8,0.3-1.4,0.8-1.8
				c0.5-0.5,1.2-0.7,2-0.7c0.8,0,1.5,0.2,2.2,0.7v1.6c-0.7-0.7-1.4-1-2.2-1c-0.4,0-0.8,0.1-1.1,0.3c-0.3,0.2-0.4,0.5-0.4,0.8
				c0,0.3,0.1,0.6,0.3,0.8c0.2,0.3,0.6,0.5,1,0.8l1,0.6c1.2,0.7,1.7,1.6,1.7,2.7c0,0.8-0.3,1.4-0.8,1.9c-0.5,0.5-1.2,0.7-2,0.7
				c-0.9,0-1.8-0.3-2.6-0.9v-1.7c0.7,0.9,1.6,1.4,2.6,1.4c0.4,0,0.8-0.1,1.1-0.4c0.3-0.2,0.4-0.5,0.4-0.9
				C100.6,54.2,100.2,53.6,99.3,53.1z"/>
			<path class="st0" d="M117.2,47.5h1.4l-3.9,9.7h-0.3l-3.1-7.8l-3.2,7.8h-0.3l-3.8-9.7h1.4l2.6,6.6l2.7-6.6h1.3l2.7,6.6L117.2,47.5
				z"/>
			<path class="st0" d="M121.2,47.5h1.4v9.6h-1.4V47.5z"/>
			<path class="st0" d="M128.7,53.1l-1-0.6c-0.7-0.4-1.1-0.8-1.4-1.2c-0.3-0.4-0.4-0.8-0.4-1.3c0-0.8,0.3-1.4,0.8-1.8
				c0.5-0.5,1.2-0.7,2-0.7c0.8,0,1.5,0.2,2.2,0.7v1.6c-0.7-0.7-1.4-1-2.2-1c-0.5,0-0.8,0.1-1.1,0.3c-0.3,0.2-0.4,0.5-0.4,0.8
				c0,0.3,0.1,0.6,0.3,0.8c0.2,0.3,0.6,0.5,1,0.8l1,0.6c1.2,0.7,1.8,1.6,1.8,2.7c0,0.8-0.3,1.4-0.8,1.9c-0.5,0.5-1.2,0.7-2,0.7
				c-0.9,0-1.8-0.3-2.6-0.9v-1.7c0.7,0.9,1.6,1.4,2.6,1.4c0.4,0,0.8-0.1,1.1-0.4c0.3-0.2,0.4-0.5,0.4-0.9
				C130,54.2,129.5,53.6,128.7,53.1z"/>
			<path class="st0" d="M136.7,53.1l-1-0.6c-0.7-0.4-1.1-0.8-1.4-1.2c-0.3-0.4-0.4-0.8-0.4-1.3c0-0.8,0.3-1.4,0.8-1.8
				c0.5-0.5,1.2-0.7,2-0.7c0.8,0,1.5,0.2,2.2,0.7v1.6c-0.7-0.7-1.4-1-2.2-1c-0.4,0-0.8,0.1-1.1,0.3c-0.3,0.2-0.4,0.5-0.4,0.8
				c0,0.3,0.1,0.6,0.3,0.8c0.2,0.3,0.6,0.5,1,0.8l1,0.6c1.2,0.7,1.8,1.6,1.8,2.7c0,0.8-0.3,1.4-0.8,1.9c-0.5,0.5-1.2,0.7-2,0.7
				c-0.9,0-1.8-0.3-2.6-0.9v-1.7c0.7,0.9,1.6,1.4,2.6,1.4c0.4,0,0.8-0.1,1.1-0.4c0.3-0.2,0.4-0.5,0.4-0.9
				C138,54.2,137.6,53.6,136.7,53.1z"/>
			<path class="st0" d="M150.9,47.5h1l4.3,9.7h-1.4l-1.3-2.8h-4.1l-1.2,2.8h-1.4L150.9,47.5z M153,53.1l-1.6-3.5l-1.4,3.5H153z"/>
			<path class="st0" d="M163.8,47.5h1.4l-4.1,9.7h-0.3l-4.1-9.7h1.4l2.9,6.8L163.8,47.5z"/>
			<path class="st0" d="M169.7,47.5h1l4.3,9.7h-1.4l-1.3-2.8h-4.1l-1.2,2.8h-1.4L169.7,47.5z M171.7,53.1l-1.6-3.5l-1.4,3.5H171.7z"
				/>
			<path class="st0" d="M185.2,47.5h1.3v9.6h-1.2l-6.4-7.4v7.4h-1.3v-9.6h1.1l6.5,7.5V47.5z"/>
			<path class="st0" d="M189.4,47.5h8v1.2H194v8.4h-1.4v-8.4h-3.3V47.5z"/>
			<path class="st0" d="M197.4,53.3h3.4v1.3h-3.4V53.3z"/>
			<path class="st0" d="M209.2,52.4h3.2v4.1c-1.2,0.5-2.4,0.8-3.5,0.8c-1.6,0-2.9-0.5-3.8-1.4c-1-0.9-1.4-2.1-1.4-3.4
				c0-1.4,0.5-2.6,1.5-3.6c1-1,2.2-1.4,3.7-1.4c0.5,0,1.1,0.1,1.5,0.2c0.5,0.1,1.1,0.3,1.8,0.7v1.4c-1.1-0.7-2.3-1-3.4-1
				c-1.1,0-1.9,0.4-2.7,1.1c-0.7,0.7-1.1,1.6-1.1,2.6c0,1.1,0.4,2,1.1,2.7c0.7,0.7,1.6,1,2.8,1c0.5,0,1.2-0.1,2-0.4l0.1,0v-2h-1.9
				V52.4z"/>
			<path class="st0" d="M218.5,47.5h1l4.3,9.7h-1.4l-1.3-2.8H217l-1.2,2.8h-1.4L218.5,47.5z M220.5,53.1l-1.6-3.5l-1.4,3.5H220.5z"
				/>
			<path class="st0" d="M225.9,57.1v-9.6h2.4c1,0,1.7,0.2,2.3,0.7c0.6,0.5,0.9,1.1,0.9,2c0,0.6-0.1,1-0.4,1.5
				c-0.3,0.4-0.7,0.7-1.2,0.9c0.3,0.2,0.6,0.5,0.9,0.8c0.3,0.3,0.7,1,1.2,1.8c0.3,0.5,0.6,1,0.8,1.2l0.5,0.7h-1.6l-0.4-0.6
				c0,0,0-0.1-0.1-0.1l-0.3-0.4l-0.4-0.7l-0.5-0.7c-0.3-0.4-0.5-0.7-0.8-0.9c-0.2-0.2-0.4-0.4-0.6-0.5c-0.2-0.1-0.5-0.2-1-0.2h-0.4
				v4.2H225.9z M227.7,48.7h-0.4v3h0.5c0.7,0,1.2-0.1,1.4-0.2c0.3-0.1,0.5-0.3,0.6-0.5c0.1-0.2,0.2-0.5,0.2-0.8
				c0-0.3-0.1-0.6-0.2-0.8c-0.2-0.2-0.4-0.4-0.7-0.5C228.8,48.7,228.3,48.7,227.7,48.7z"/>
			<path class="st0" d="M235.4,57.1v-9.6h3.2c1.3,0,2.3,0.2,3.1,0.6c0.8,0.4,1.4,1,1.8,1.7c0.5,0.8,0.7,1.6,0.7,2.5
				c0,0.6-0.1,1.3-0.4,1.8c-0.2,0.6-0.6,1.1-1.1,1.6c-0.5,0.5-1,0.8-1.6,1c-0.4,0.1-0.7,0.2-1,0.3c-0.3,0-0.9,0.1-1.7,0.1H235.4z
				 M238.5,48.7h-1.7v7.2h1.8c0.7,0,1.2,0,1.6-0.1c0.4-0.1,0.7-0.2,1-0.4c0.3-0.1,0.5-0.3,0.7-0.5c0.7-0.7,1-1.6,1-2.6
				c0-1-0.3-1.9-1-2.5c-0.3-0.2-0.6-0.4-0.9-0.6c-0.3-0.2-0.6-0.3-0.9-0.3C239.6,48.8,239.1,48.7,238.5,48.7z"/>
			<path class="st0" d="M247.5,47.5h5.4v1.2h-4.1v2.9h3.9v1.2h-3.9v3h4.2v1.2h-5.6V47.5z"/>
			<path class="st0" d="M264,53.1l-1-0.6c-0.7-0.4-1.1-0.8-1.4-1.2c-0.3-0.4-0.4-0.8-0.4-1.3c0-0.8,0.3-1.4,0.8-1.8
				c0.5-0.5,1.2-0.7,2-0.7c0.8,0,1.5,0.2,2.2,0.7v1.6c-0.7-0.7-1.4-1-2.2-1c-0.4,0-0.8,0.1-1.1,0.3c-0.3,0.2-0.4,0.5-0.4,0.8
				c0,0.3,0.1,0.6,0.3,0.8c0.2,0.3,0.6,0.5,1,0.8l1,0.6c1.2,0.7,1.8,1.6,1.8,2.7c0,0.8-0.3,1.4-0.8,1.9c-0.5,0.5-1.2,0.7-2,0.7
				c-0.9,0-1.8-0.3-2.6-0.9v-1.7c0.7,0.9,1.6,1.4,2.6,1.4c0.4,0,0.8-0.1,1.1-0.4c0.3-0.2,0.4-0.5,0.4-0.9
				C265.3,54.2,264.8,53.6,264,53.1z"/>
			<path class="st0" d="M269.6,47.5h1.4v9.6h-1.4V47.5z"/>
			<path class="st0" d="M282.4,47.5h1.3v9.6h-1.2l-6.4-7.4v7.4h-1.3v-9.6h1.1l6.5,7.5V47.5z"/>
			<path class="st0" d="M295.6,54.9v1.5c-1,0.6-2.2,0.8-3.5,0.8c-1.1,0-2-0.2-2.7-0.6c-0.7-0.4-1.3-1-1.8-1.8
				c-0.4-0.8-0.7-1.6-0.7-2.5c0-1.4,0.5-2.6,1.5-3.5c1-1,2.2-1.4,3.7-1.4c1,0,2.1,0.3,3.4,0.8v1.5c-1.1-0.6-2.2-1-3.3-1
				c-1.1,0-2,0.3-2.7,1c-0.7,0.7-1.1,1.6-1.1,2.6c0,1.1,0.4,1.9,1.1,2.6c0.7,0.7,1.6,1,2.7,1C293.3,56,294.5,55.6,295.6,54.9z"/>
			<path class="st0" d="M298.8,47.5h5.4v1.2h-4.1v2.9h3.9v1.2h-3.9v3h4.2v1.2h-5.6V47.5z"/>
			<path class="st0" d="M314.7,47.5h1.4v9.6h-1.4V47.5z"/>
			<path class="st0" d="M321.2,50.1c0-0.8,0.3-1.4,0.8-1.9c0.6-0.5,1.3-0.8,2.1-0.8c0.8,0,1.5,0.3,2,0.8c0.6,0.5,0.8,1.2,0.8,1.9
				c0,0.9-0.4,1.6-1.2,2.1c0.9,0.5,1.3,1.3,1.3,2.3c0,0.8-0.3,1.5-0.9,2c-0.6,0.5-1.3,0.8-2.2,0.8c-0.9,0-1.6-0.3-2.2-0.8
				c-0.6-0.5-0.9-1.2-0.9-2c0-1,0.4-1.7,1.4-2.3c-0.4-0.3-0.7-0.7-0.9-1C321.3,50.9,321.2,50.5,321.2,50.1z M325.7,54.5v-0.1
				c0-0.4-0.2-0.8-0.5-1.1c-0.3-0.3-0.7-0.4-1.2-0.4c-0.5,0-0.9,0.1-1.2,0.4c-0.3,0.3-0.5,0.6-0.5,1.1c0,0.4,0.2,0.8,0.5,1.1
				c0.3,0.3,0.7,0.4,1.2,0.4c0.5,0,0.9-0.1,1.2-0.4C325.6,55.3,325.7,55,325.7,54.5z M325.6,50.1c0-0.4-0.1-0.8-0.4-1
				c-0.3-0.3-0.7-0.4-1.1-0.4c-0.4,0-0.8,0.1-1.1,0.4c-0.3,0.3-0.4,0.6-0.4,1c0,0.4,0.1,0.7,0.5,1c0.3,0.3,0.7,0.4,1.1,0.4
				c0.4,0,0.8-0.1,1.1-0.4C325.5,50.9,325.6,50.5,325.6,50.1z"/>
			<path class="st0" d="M333.4,47.5l0.1-0.1l0.8,1.1c-0.7,0.5-1.3,1-1.8,1.6c-0.5,0.6-0.9,1.2-1.1,2c0.5-0.3,1-0.4,1.5-0.4
				c0.8,0,1.4,0.3,1.9,0.8c0.5,0.5,0.8,1.2,0.8,2c0,0.8-0.3,1.5-0.8,2c-0.6,0.6-1.2,0.8-2.1,0.8c-0.9,0-1.6-0.3-2.2-1
				c-0.6-0.6-0.8-1.5-0.8-2.5c0-0.8,0.1-1.5,0.4-2.3c0.3-0.8,0.7-1.5,1.2-2.1C332,48.7,332.6,48,333.4,47.5z M331.2,53.4
				c0,0.2-0.1,0.5-0.1,0.7c0,0.5,0.2,1,0.5,1.3c0.3,0.3,0.7,0.5,1.2,0.5c0.4,0,0.8-0.1,1.1-0.4c0.3-0.3,0.4-0.7,0.4-1.1
				c0-0.5-0.2-0.8-0.5-1.1c-0.3-0.3-0.7-0.4-1.2-0.4c-0.3,0-0.5,0-0.7,0.1C331.8,53,331.5,53.2,331.2,53.4z"/>
			<path class="st0" d="M341.3,47.4c0.9,0,1.6,0.5,2.2,1.4c0.6,0.9,0.9,2.1,0.9,3.5c0,1.5-0.3,2.6-0.9,3.6c-0.6,0.9-1.3,1.4-2.2,1.4
				c-0.9,0-1.7-0.4-2.2-1.3c-0.6-0.9-0.8-2.1-0.8-3.6c0-1.5,0.3-2.6,0.9-3.6C339.6,47.8,340.4,47.4,341.3,47.4z M341.3,48.7
				L341.3,48.7c-0.6,0-1,0.3-1.3,1c-0.3,0.6-0.5,1.5-0.5,2.6c0,1.1,0.2,2,0.5,2.7c0.3,0.6,0.7,1,1.3,1c0.5,0,0.9-0.3,1.3-1
				c0.3-0.6,0.5-1.5,0.5-2.6c0-1.1-0.1-2-0.4-2.7C342.2,49,341.8,48.7,341.3,48.7z"/>
		</g>
		<g>
			<polygon class="st1" points="0,38.3 0,0.1 66,0.1 66,38.3 33,57.2 			"/>
			<polygon class="st0" points="1.7,1.8 1.7,1.8 1.7,37.3 33,55.3 33,55.3 33,55.3 64.3,37.3 64.3,37.3 64.3,1.8 			"/>
			<polygon class="st1" points="62.7,21.8 62.7,3.5 3.3,3.5 3.3,22.7 62.7,22.7 			"/>
			<g>
				<g>
					<polygon class="st2" points="17.8,20.4 17.8,8.8 24,8.8 24,5.7 7.3,5.7 7.3,8.8 13.5,8.8 13.5,20.4 17.8,20.4 17.8,20.4 					
						"/>
				</g>
			</g>
			<g>
				<g>
					<path class="st2" d="M58,20.2c-3.3,0.6-7.6,0.8-10.8-0.4c-2.7-1-4.3-3.4-4.6-5.7c-0.4-2.9,0.9-5.4,3.6-7.1
						c3.1-1.9,8-1.8,11.4-0.5l0,0v3.2c-2.6-1-6.4-1.9-8.9-0.3c-1.8,1.2-2.3,3-1.9,4.9c0.4,1.5,1.8,2.8,3.4,3.3
						c1.1,0.3,2.6,0.4,3.8,0.3l0,0v-2.4l-1.7,0v-2.9h5.6L58,20.2z"/>
				</g>
			</g>
			<g>
				<g>
					<path class="st2" d="M28.2,17.6l-1.5,2.9h-4.4l7.2-14.7h5l7.4,14.7h-4.5l-1.5-2.9H28.2L28.2,17.6L28.2,17.6z M32,9.4l-2.6,5.2
						h5.1L32,9.4z"/>
				</g>
			</g>
			<polygon class="st1" points="3.3,36.4 33,53.5 62.7,36.4 62.7,24.4 3.3,24.4 			"/>
			<path class="st0" d="M37.8,47.6l0-20.9c0-0.1,0-0.1-0.1-0.1h-2.1c-0.1,0-0.1,0-0.1,0.1v19.7L33,47.7l-2.5-1.4V26.7
				c0-0.1,0-0.1-0.1-0.1h-2.1c0,0-0.1,0-0.1,0c0,0,0,0,0,0.1l0,20.9c0,0,0,0.1,0.1,0.1l4.7,2.7c0,0,0.1,0,0.1,0L37.8,47.6
				C37.8,47.7,37.8,47.7,37.8,47.6z"/>
			<path class="st0" d="M24.7,45.7c0,0,0.1,0,0.1,0c0,0,0.1-0.1,0.1-0.1v-2.3c0,0,0-0.1-0.1-0.1l-4.5-2.5v-5.5l4.1,1
				c0,0,0.1-0.1,0.1-0.1l0-2.2c0,0-0.1-0.1-0.1-0.1l-4-0.9v-4.4h4.5c0.1,0,0.1,0,0.1-0.1v-1.8c0-0.1,0-0.1-0.1-0.1h-6.7
				c-0.1,0-0.1,0-0.1,0.1v15.1c0,0,0,0.1,0.1,0.1L24.7,45.7z"/>
			<path class="st0" d="M48.5,41.5v-2c0,0,0-0.1-0.1-0.1c0,0-0.1,0-0.1,0l-4.4,2.4v-6l4.1-1.1c0,0,0.1-0.1,0.1-0.1v-2
				c0,0,0-0.1,0-0.1c0,0,0,0-0.1,0l-4.1,0.9v-4.8h4.5c0.1,0,0.1,0,0.1-0.1v-1.8c0-0.1,0-0.1-0.1-0.1h-6.6c-0.1,0-0.1,0-0.1,0.1v18.7
				c0,0,0,0.1,0.1,0.1c0,0,0.1,0,0.1,0L48.5,41.5C48.4,41.6,48.5,41.5,48.5,41.5z"/>
			<path class="st0" d="M12.4,38.6l1.8,1.1c0,0,0.1,0,0.1,0c0,0,0.1-0.1,0.1-0.1l0-12.9c0-0.1,0-0.1-0.1-0.1h-1.8
				c-0.1,0-0.1,0-0.1,0.1v4.6l-4.4-1v-3.6c0-0.1,0-0.1-0.1-0.1H6c0,0-0.1,0-0.1,0c0,0,0,0,0,0.1l0,8.2c0,0,0,0.1,0.1,0.1l1.8,1
				c0,0,0.1,0,0.1,0c0,0,0.1-0.1,0.1-0.1v-3.7l4.4,1.1L12.4,38.6C12.4,38.6,12.4,38.6,12.4,38.6z"/>
			<path class="st0" d="M51.9,39.5c0,0,0.1,0,0.1,0l1.9-1.1c0,0,0,0,0,0v-5.2l1.1-0.3l3.3,2.9c0,0,0.1,0.1,0.1,0l1.7-1
				c0,0,0,0,0.1-0.1c0,0,0,0,0-0.1l-2.8-2.4l2-0.5c0.7-0.2,0.8-0.5,0.8-1.2l0-3.3c-0.1-0.5-0.4-0.8-0.9-0.8c0,0-0.1,0-0.1,0l-7.1,0
				c-0.1,0-0.1,0.1-0.1,0.1L51.9,39.5C51.9,39.5,51.9,39.5,51.9,39.5z M54,28.6l3.9,0c0.2,0,0.3,0.1,0.3,0.3v1c0,0.2,0,0.3-0.3,0.4
				L54,31.2V28.6z"/>
		</g>
	</g>
</g>
</svg>
